# Blender v2.74 (sub 0) OBJ File: 'shape1.blend'
# www.blender.org
mtllib shape1.mtl
o Cube_Cube.001
v -0.500000 -0.500000 0.250000
v -0.500000 0.000000 0.250000
v -0.500000 -0.500000 -0.250000
v -0.500000 0.000000 -0.250000
v 0.500000 -0.500000 0.250000
v 0.500000 0.000000 0.250000
v 0.500000 -0.500000 -0.250000
v 0.500000 0.000000 -0.250000
vt 0.999928 0.999928
vt 0.500072 0.999928
vt 0.500072 0.500072
vt 0.999928 0.500072
vt 0.999730 0.999992
vt 0.000270 0.999992
vt 0.000270 0.500008
vt 0.999730 0.500008
vt 0.499960 0.499960
vt 0.000040 0.499960
vt 0.000040 0.000040
vt 0.499960 0.000040
vt -0.000097 0.000043
vt 1.000097 0.000042
vt 1.000097 0.499958
vt -0.000097 0.499958
vt -0.000175 0.499983
vt -0.000175 0.000016
vt 1.000176 0.000017
vt 1.000175 0.499984
vt 0.000425 1.000150
vt 0.000425 0.499850
vt 0.999575 0.499850
vt 0.999575 1.000150
vn -1.000000 0.000000 0.000000
vn 0.000000 0.000000 -1.000000
vn 1.000000 0.000000 0.000000
vn 0.000000 0.000000 1.000000
vn 0.000000 -1.000000 0.000000
vn 0.000000 1.000000 0.000000
usemtl None
s off
f 2/1/1 4/2/1 3/3/1 1/4/1
f 4/5/2 8/6/2 7/7/2 3/8/2
f 8/9/3 6/10/3 5/11/3 7/12/3
f 6/13/4 2/14/4 1/15/4 5/16/4
f 1/17/5 3/18/5 7/19/5 5/20/5
f 6/21/6 8/22/6 4/23/6 2/24/6
