# Blender v2.74 (sub 0) OBJ File: 'roof1.blend'
# www.blender.org
mtllib roof1.mtl
o Cube
v 0.500000 -0.500000 -0.500000
v 0.500000 -0.500000 0.500000
v -0.500000 -0.500000 0.500000
v -0.500000 -0.500000 -0.500000
v 0.500000 0.000000 0.000000
v -0.500000 0.000000 -0.000000
v -0.000000 0.000000 0.000000
vt 0.000096 0.000128
vt 0.999904 0.000128
vt 0.999904 0.999872
vt 0.000096 0.999872
vt 1.000036 -0.000394
vt 1.000037 0.625592
vt -0.000036 0.625592
vt -0.000037 -0.000394
vt 0.500000 -0.000394
vt 0.797269 0.000256
vt 0.797270 0.999744
vt 0.091619 0.500000
vt 0.797232 0.000309
vt 0.797232 0.999691
vt 0.091657 0.500000
vt 0.500000 0.375164
vt 0.999981 0.375164
vt 0.999982 0.999754
vt 0.000019 0.999754
vt 0.000018 0.375164
vn 0.000000 -1.000000 0.000000
vn 0.000000 0.707100 -0.707100
vn 1.000000 0.000000 0.000000
vn -1.000000 -0.000000 -0.000000
vn -0.000000 0.707100 0.707100
usemtl Material
s off
f 1/1/1 2/2/1 3/3/1 4/4/1
f 5/5/2 1/6/2 4/7/2 6/8/2 7/9/2
f 2/10/3 1/11/3 5/12/3
f 4/13/4 3/14/4 6/15/4
f 7/16/5 6/17/5 3/18/5 2/19/5 5/20/5
