# Blender v2.74 (sub 0) OBJ File: 'diag1.blend'
# www.blender.org
mtllib diag1.mtl
o Cube
v 0.500000 -0.500000 -0.500000
v 0.500000 -0.500000 0.500000
v -0.500000 -0.500000 0.500000
v -0.500000 -0.500000 -0.500000
v 0.499999 0.500000 0.500000
v -0.500000 0.500000 0.500000
v -0.500000 0.500000 -0.500000
vt 0.997156 0.997156
vt 0.002844 0.997156
vt 0.002844 0.002844
vt 0.997156 0.002844
vt 0.996384 0.003616
vt 0.996384 0.996384
vt 0.003615 0.996385
vt 0.003615 0.003616
vt 0.001849 0.998151
vt 0.001850 0.001849
vt 0.998151 0.001849
vt 0.998151 0.998151
vt 1.000135 -0.002040
vt 1.000135 1.000135
vt -0.002040 1.000135
vt 0.003430 0.003430
vt 0.993698 0.003430
vt 0.003430 0.993698
vt 0.995904 0.002455
vt 0.995904 0.995904
vt 0.002455 0.995904
vt 0.996081 0.938396
vt 0.005678 0.938396
vt 0.500879 0.080682
vn 0.000000 -1.000000 0.000000
vn -0.000000 -0.000000 1.000000
vn -1.000000 -0.000000 -0.000000
vn 0.000000 0.000000 -1.000000
vn 1.000000 0.000000 0.000000
vn 0.000000 1.000000 0.000000
vn 0.577400 0.577400 -0.577400
usemtl Material
s off
f 1/1/1 2/2/1 3/3/1 4/4/1
f 2/5/2 5/6/2 6/7/2 3/8/2
f 3/9/3 6/10/3 7/11/3 4/12/3
f 1/13/4 4/14/4 7/15/4
f 2/16/5 1/17/5 5/18/5
f 7/19/6 6/20/6 5/21/6
f 7/22/7 5/23/7 1/24/7
