# Blender v2.74 (sub 0) OBJ File: 'shape4.blend'
# www.blender.org
mtllib shape4.mtl
o Cube.001_Cube.000
v -0.250000 -0.500000 0.250000
v -0.250000 0.000000 0.250000
v -0.250000 -0.500000 -0.250000
v -0.250000 0.000000 -0.250000
v 0.500000 -0.500000 0.250000
v 0.500000 0.000000 0.250000
v 0.500000 -0.500000 -0.250000
v 0.500000 0.000000 -0.250000
v -0.250000 0.000000 -0.250000
v -0.250000 0.000000 -0.500000
v -0.250000 -0.500000 -0.500000
v -0.250000 -0.500000 -0.250000
v 0.250000 0.000000 -0.500000
v 0.250000 0.000000 -0.250000
v 0.250000 -0.500000 -0.500000
v 0.250000 -0.500000 -0.250000
vt 0.999928 0.999928
vt 0.500072 0.999928
vt 0.500072 0.500072
vt 0.999928 0.500072
vt 0.999730 0.999992
vt 0.000270 0.999992
vt 0.000270 0.500008
vt 0.999730 0.500008
vt 0.499960 0.499960
vt 0.000040 0.499960
vt 0.000040 0.000040
vt 0.499960 0.000040
vt 1.000097 0.499958
vt -0.000097 0.499957
vt -0.000097 0.000042
vt 1.000097 0.000043
vt -0.000175 0.499983
vt -0.000175 0.000016
vt 1.000176 0.000017
vt 1.000175 0.499984
vt 0.000425 1.000150
vt 0.000425 0.499850
vt 0.999575 0.499850
vt 0.999575 1.000150
vt 0.250135 0.999992
vt 0.250135 0.500008
vt 0.750150 0.499894
vt 0.249850 0.499894
vt 0.249850 0.250106
vt 0.750150 0.250106
vt 0.250017 0.750044
vt 0.250017 0.499956
vt 0.749983 0.499956
vt 0.749983 0.750044
vt 0.249952 0.000043
vt 0.750906 0.748838
vt 0.750906 0.251162
vt 0.249094 0.251162
vt 0.249094 0.748838
vn -1.000000 0.000000 0.000000
vn 0.000000 0.000000 -1.000000
vn 1.000000 0.000000 0.000000
vn -0.000000 0.000000 1.000000
vn 0.000000 -1.000000 0.000000
vn 0.000000 1.000000 0.000000
usemtl Material
s off
f 2/1/1 4/2/1 3/3/1 1/4/1
f 4/5/2 8/6/2 7/7/2 3/8/2
f 8/9/3 6/10/3 5/11/3 7/12/3
f 6/13/4 2/14/4 1/15/4 5/16/4
f 1/17/5 3/18/5 7/19/5 5/20/5
f 6/21/6 8/22/6 4/23/6 2/24/6
f 9/25/1 10/6/1 11/7/1 12/26/1
f 13/27/6 10/28/6 9/29/6 14/30/6
f 10/9/2 13/10/2 15/11/2 11/12/2
f 12/31/5 11/32/5 15/33/5 16/34/5
f 13/32/3 14/14/3 16/15/3 15/35/3
f 9/36/4 12/37/4 16/38/4 14/39/4
