# Blender v2.74 (sub 0) OBJ File: 'mymeshnodes_machine.blend'
# www.blender.org
mtllib mymeshnodes_machine.mtl
o Cube
v 0.500000 -0.500000 -0.500000
v 0.500000 -0.500000 0.500000
v -0.500000 -0.500000 0.500000
v -0.500000 -0.500000 -0.500000
v 0.499999 0.500000 0.500000
v -0.500000 0.500000 0.500000
v 0.500000 0.002728 -0.500000
v 0.500000 0.500000 -0.002728
v 0.500000 0.099741 -0.490445
v 0.500000 0.193026 -0.462147
v 0.500000 0.278998 -0.416194
v 0.500000 0.354353 -0.354352
v 0.500000 0.416195 -0.278997
v 0.500000 0.462147 -0.193026
v 0.500000 0.490445 -0.099741
v -0.500000 0.500000 -0.002728
v -0.500000 0.002728 -0.500000
v -0.500000 0.490445 -0.099741
v -0.500000 0.462147 -0.193026
v -0.500000 0.416195 -0.278998
v -0.500000 0.354353 -0.354352
v -0.500000 0.278998 -0.416194
v -0.500000 0.193026 -0.462147
v -0.500000 0.099741 -0.490445
vt 0.500505 0.500546
vt 0.000004 0.500547
vt 0.000003 0.000046
vt 0.500504 0.000045
vt 1.000014 0.000034
vt 1.000014 0.500527
vt 0.748402 0.500527
vt 0.699848 0.495745
vt 0.653160 0.481582
vt 0.610132 0.458583
vt 0.572417 0.427632
vt 0.541465 0.389917
vt 0.518466 0.346889
vt 0.504303 0.300200
vt 0.499521 0.251646
vt 0.499520 0.000034
vt 0.744412 0.999906
vt 0.744411 0.500582
vt 0.999974 0.500582
vt 0.999975 0.999906
vt 0.500431 0.500494
vt 0.000061 0.500495
vt 0.000060 0.000125
vt 0.500430 0.000124
vt 0.499289 -0.000059
vt 0.499289 0.251616
vt 0.504072 0.300183
vt 0.518238 0.346883
vt 0.541243 0.389923
vt 0.572203 0.427647
vt 0.609927 0.458606
vt 0.652966 0.481611
vt 0.699666 0.495777
vt 0.748232 0.500560
vt 0.999908 0.500560
vt 0.999908 -0.000059
vt 0.255645 1.000006
vt 0.255644 0.500667
vt 0.305189 0.500667
vt 0.305189 1.000006
vt 0.354733 0.500667
vt 0.354734 1.000006
vt 0.404278 0.500667
vt 0.404278 1.000006
vt 0.453823 0.500667
vt 0.453823 1.000006
vt 0.546188 0.999907
vt 0.546189 0.500582
vt 0.595744 0.500582
vt 0.595744 0.999907
vt 0.645300 0.500582
vt 0.645300 0.999907
vt 0.694855 0.500582
vt 0.694856 0.999907
vt 0.000137 1.000006
vt 0.000136 0.500667
vn 0.000000 -1.000000 0.000000
vn -1.000000 -0.000000 -0.000000
vn 0.000000 1.000000 -0.000000
vn -0.000000 -0.000000 1.000000
vn 1.000000 0.000000 0.000000
vn 0.000000 0.098000 -0.995200
vn 0.000000 0.290300 -0.956900
vn 0.000000 0.471400 -0.881900
vn 0.000000 0.634400 -0.773000
vn 0.000000 0.773000 -0.634400
vn 0.000000 0.881900 -0.471400
vn 0.000000 0.956900 -0.290300
vn 0.000000 0.995200 -0.098000
vn 0.000000 0.000000 -1.000000
usemtl Material
s off
f 1/1/1 2/2/1 3/3/1 4/4/1
f 3/5/2 6/6/2 16/7/2 18/8/2 19/9/2 20/10/2 21/11/2 22/12/2 23/13/2 24/14/2 17/15/2 4/16/2
f 8/17/3 16/18/3 6/19/3 5/20/3
f 2/21/4 5/22/4 6/23/4 3/24/4
f 1/25/5 7/26/5 9/27/5 10/28/5 11/29/5 12/30/5 13/31/5 14/32/5 15/33/5 8/34/5 5/35/5 2/36/5
f 7/37/6 17/38/6 24/39/6 9/40/6
f 9/40/7 24/39/7 23/41/7 10/42/7
f 10/42/8 23/41/8 22/43/8 11/44/8
f 11/44/9 22/43/9 21/45/9 12/46/9
f 12/47/10 21/48/10 20/49/10 13/50/10
f 13/50/11 20/49/11 19/51/11 14/52/11
f 14/52/12 19/51/12 18/53/12 15/54/12
f 15/54/13 18/53/13 16/18/13 8/17/13
f 7/37/14 1/55/14 4/56/14 17/38/14
